<svg xmlns="http://www.w3.org/2000/svg" viewBox="0 0 1800 1100" preserveAspectRatio="xMidYMid slice">
  <defs>
    <linearGradient id="sky" x2="0" y2="1">
      <stop stop-color="#25172f"/>
      <stop offset=".38" stop-color="#75445e"/>
      <stop offset=".72" stop-color="#e08b72"/>
      <stop offset="1" stop-color="#f3b98c"/>
    </linearGradient>
    <linearGradient id="water" x2="0" y2="1">
      <stop stop-color="#f3b68f"/>
      <stop offset=".2" stop-color="#98647b"/>
      <stop offset=".66" stop-color="#463653"/>
      <stop offset="1" stop-color="#211d38"/>
    </linearGradient>
    <radialGradient id="sunGlow">
      <stop stop-color="#ffe1ac" stop-opacity=".94"/>
      <stop offset=".22" stop-color="#ffc59a" stop-opacity=".56"/>
      <stop offset="1" stop-color="#f5a388" stop-opacity="0"/>
    </radialGradient>
    <linearGradient id="reflection" x2="0" y2="1">
      <stop stop-color="#ffe0ae" stop-opacity=".8"/>
      <stop offset="1" stop-color="#f4a885" stop-opacity="0"/>
    </linearGradient>
    <filter id="soft"><feGaussianBlur stdDeviation="18"/></filter>
  </defs>
  <rect width="1800" height="550" fill="url(#sky)"/>
  <rect y="550" width="1800" height="550" fill="url(#water)"/>
  <ellipse cx="1230" cy="525" rx="460" ry="375" fill="url(#sunGlow)"/>
  <circle cx="1230" cy="474" r="92" fill="#ffe0b3" fill-opacity=".86"/>
  <g fill="#30223d" fill-opacity=".74">
    <path d="M0 214c74-51 154-43 219-4 35-87 171-122 252-45 49-89 181-115 268-58 54-75 157-81 210-17 58-47 146-48 203-6 49-66 160-77 213-12 82-40 157 0 199 49 75-30 156 0 236 64 70-31 134-11 200 37v100H0z"/>
    <path d="M0 328c87-46 165-30 213 22 65-63 170-65 235-4 46-64 152-72 207-10 66-56 157-53 211 3 55-39 138-36 190 9 70-48 161-36 213 19 76-41 169-25 224 25 95-27 202 0 307 55v93H0z" fill="#492943" fill-opacity=".68"/>
  </g>
  <g fill="#ec9f85" fill-opacity=".48">
    <path d="M70 412c61-49 119-53 179-10 40-60 112-73 160-32 57-60 147-45 173 18 53-30 117-14 142 25 65-20 130 5 148 48H0z"/>
    <path d="M996 349c55-50 126-46 167 2 48-57 117-54 155 4 61-42 138-20 163 29 72-20 147 19 165 72H901z"/>
  </g>
  <g opacity=".56" filter="url(#soft)" fill="#f7af8d">
    <path d="M-40 470c170-70 292-42 382-2 105-81 254-52 332 17 130-36 258-16 338 42H-40z"/>
    <path d="M939 433c127-80 254-53 330 3 96-64 224-31 267 35 86-6 171 22 304 76H900z"/>
  </g>
  <path d="M0 548c197-8 338 13 512 3 197-11 333-16 501-6 243 14 499-11 787 2v28H0z" fill="#241e36" fill-opacity=".85"/>
  <path d="M1125 568h211l72 532h-385z" fill="url(#reflection)" opacity=".55"/>
  <g fill="none" stroke="#f6c49c" stroke-linecap="round">
    <path d="M107 607c184 18 295 9 407 5" stroke-width="3" stroke-opacity=".42"/>
    <path d="M1403 610c120 4 235 14 319 6" stroke-width="2" stroke-opacity=".44"/>
    <path d="M751 660c104 15 175 11 258 4" stroke-width="3" stroke-opacity=".5"/>
    <path d="M278 719c128 8 196 2 279-3" stroke-width="2" stroke-opacity=".47"/>
    <path d="M1309 752c143 18 252 14 344 4" stroke-width="2" stroke-opacity=".38"/>
    <path d="M565 804c122-1 228 14 321 9" stroke-width="2" stroke-opacity=".36"/>
    <path d="M95 889c230 18 352 10 446 4" stroke-width="3" stroke-opacity=".31"/>
    <path d="M1187 941c156 7 292 19 420 7" stroke-width="2" stroke-opacity=".3"/>
  </g>
  <g fill="#f4c5a5" fill-opacity=".62">
    <circle cx="169" cy="180" r="2"/><circle cx="541" cy="112" r="2.2"/><circle cx="887" cy="237" r="1.7"/>
    <circle cx="1512" cy="154" r="2"/><circle cx="1649" cy="282" r="1.5"/><circle cx="316" cy="286" r="1.6"/>
  </g>
</svg>
